<svg xmlns="http://www.w3.org/2000/svg" xmlns:xlink="http://www.w3.org/1999/xlink" width="287.9" height="260.3" viewBox="0 0 287.9 260.3">
  <defs>
    <style>
      .cls-1 {
        fill: none;
      }

      .cls-2 {
        clip-path: url(#clip-path);
      }

      .cls-3 {
        fill: url(#linear-gradient);
      }

      .cls-4 {
        clip-path: url(#clip-path-2);
      }

      .cls-5 {
        fill: #fff;
      }
    </style>
    <clipPath id="clip-path" transform="translate(-153.3 -127.5)">
      <path class="cls-1" d="M201.4,127.5a108.08,108.08,0,0,0-14.2,1.1,51.18,51.18,0,0,0-7.4,1.7l-.2.1-.2.1a45.15,45.15,0,0,0-7.3,3.2,34.3,34.3,0,0,0-6.6,4.9,23.65,23.65,0,0,0-2.3,2.4c-.1.2-.3.3-.4.5l-.4.4-.7.9a25.13,25.13,0,0,0-1.8,2.7,22.51,22.51,0,0,0-1.6,3l-.3.6-.1.2c-.3.7-.5,1.3-.7,1.8l-.1.2c-.3.7-.5,1.4-.8,2.2a47.24,47.24,0,0,0-1.6,7.4,123.13,123.13,0,0,0-1.3,14.9,114.26,114.26,0,0,0,.3,11.7l.2,2.1c.3,4,.7,8.7,1.2,13.4.4,4.1.9,8.4,1.5,13.7.6,4.4,1.3,9,2.1,13.6.4,2.3.8,4.5,1.2,6.7.3,2,.7,3.9,1.1,5.8l.2,1c.8,4.1,1.8,8.3,3.1,13.3,2.1,8.5,4.6,17.1,7.7,26.3,2.9,8.5,6.2,17.1,9.8,25.5,1.7,4.1,3.6,8.2,5.8,12.5,2.3,4.5,4.5,8.5,6.7,12.2,2.6,4.2,5.1,8,7.7,11.5,2.8,3.7,5.7,7.3,8.8,10.7l.1.1A114.41,114.41,0,0,0,232,374c.7.5,1.4.9,2.2,1.4,3.5,2.8,17.6,12.5,40.9,12.5,35.3,0,73.2-21.5,112.7-64,1.7-1.6,3.2-3.1,4.6-4.7,1.3-1.4,2.6-2.8,3.7-4.1l1-1.1,4.5-5.1c3-3.5,6-7.1,8.7-10.7,3.3-4.2,5.9-7.7,8.3-11.2,2.7-3.9,5.2-7.9,7.5-11.8a129.87,129.87,0,0,0,6.6-12.7A141.67,141.67,0,0,0,438,249a66.69,66.69,0,0,0,2.9-15.3,58.35,58.35,0,0,0-1.3-16v-.1a55.19,55.19,0,0,0-5.9-14.9,61.78,61.78,0,0,0-9.8-12.5,95.11,95.11,0,0,0-11.6-9.5,140.06,140.06,0,0,0-12.4-7.5c-4.1-2.2-8.4-4.2-12.7-6.1-4-1.7-8.3-3.4-13-5.1-9-3.2-18.3-6-26.1-8.2-15.7-4.5-32.4-8.6-52.5-12.9-16.8-3.6-34.1-6.7-53-9.6-7.5-1.2-17.3-2.6-27.1-3.2-3.8-.3-7.4-.4-10.9-.4a18.3,18.3,0,0,0-3.2-.2"/>
    </clipPath>
    <linearGradient id="linear-gradient" x1="-659.2" y1="243.52" x2="-658.2" y2="243.52" gradientTransform="translate(189600.38 -69911.72) scale(287.62)" gradientUnits="userSpaceOnUse">
      <stop offset="0" stop-color="#ffa276"/>
      <stop offset="0.51" stop-color="#ffa176"/>
      <stop offset="1" stop-color="#fb8b7d"/>
    </linearGradient>
    <clipPath id="clip-path-2" transform="translate(-153.3 -127.5)">
      <rect class="cls-1" width="595.3" height="595"/>
    </clipPath>
  </defs>
  <g id="Layer_2" data-name="Layer 2">
    <g id="Layer_1-2" data-name="Layer 1">
      <g class="cls-2">
        <rect class="cls-3" width="287.9" height="260.3"/>
      </g>
      <g>
        <g class="cls-4">
          <path class="cls-5" d="M430.3,220.2a48.39,48.39,0,0,0-4.8-12.3,51,51,0,0,0-8.1-10.4,69.91,69.91,0,0,0-10.3-8.4,132.87,132.87,0,0,0-11.4-6.9c-3.9-2.1-7.9-4-12-5.8s-8.2-3.4-12.4-4.9c-8.4-3-16.9-5.6-25.5-8-17.1-4.9-34.4-9-51.8-12.8s-34.9-6.8-52.5-9.5a261.7,261.7,0,0,0-26.3-3.1c-4.4-.3-8.7-.4-13.1-.3a91,91,0,0,0-12.9,1,41.54,41.54,0,0,0-6.1,1.4,28.14,28.14,0,0,0-5.6,2.5,21.53,21.53,0,0,0-4.8,3.6,18.4,18.4,0,0,0-3.8,4.7,17.39,17.39,0,0,0-1.4,2.7c-.2.5-.4,1-.6,1.4a8.8,8.8,0,0,0-.5,1.5,41.34,41.34,0,0,0-1.4,6.3c-1.3,9,.1,35.1.5,39.6s.9,8.9,1.5,13.3,1.3,8.8,2,13.2l1.2,6.6c.4,2.2.8,4.4,1.3,6.5.9,4.4,1.9,8.7,3,13q3.15,12.9,7.5,25.5c2.8,8.4,6,16.7,9.5,24.8,1.7,4.1,3.6,8,5.6,11.9a126.64,126.64,0,0,0,6.3,11.4c2.3,3.7,4.6,7.3,7.2,10.8s5.3,6.8,8.1,10A97.53,97.53,0,0,0,238,366a75.3,75.3,0,0,0,22.7,10c2.4.6,4.7,1,7.1,1.4.4.1.8.1,1.2.2h.2a6,6,0,0,0,6-6,5.75,5.75,0,0,0-1.4-3.8c-1.1-1.3-2.1-2.5-3.1-3.8-.4-.5-.6-.7-1.4-1.8a10.93,10.93,0,0,1-.8-1.5,4.92,4.92,0,0,1-.6-1.7,11.92,11.92,0,0,1,.1-7,12.48,12.48,0,0,1,3.9-5.8,11.71,11.71,0,0,1,6.7-2.7,10.82,10.82,0,0,1,1.8,0l.9.1.4.1,1.6.3,3.2.5c2.1.3,4.3.5,6.5.8a147.85,147.85,0,0,0,25.7.6,99.94,99.94,0,0,0,24.7-5.3l3-1.1a25.15,25.15,0,0,0,2.9-1.2c1-.4,2-.8,2.9-1.2l2.9-1.4c1.9-.9,3.8-2,5.7-3s3.6-2.2,5.5-3.3A111.16,111.16,0,0,0,386,312.8c1.5-1.5,3-3.2,4.4-4.9l4.4-5c2.9-3.4,5.7-6.8,8.4-10.3s5.4-7.1,7.9-10.7,4.9-7.4,7.1-11.2a131.61,131.61,0,0,0,6.1-11.8,109.54,109.54,0,0,0,4.8-12.4,57.48,57.48,0,0,0,2.5-13,64.52,64.52,0,0,0-1.3-13.3m-50.9,16.4a36.43,36.43,0,0,1-1.5,8,70.53,70.53,0,0,1-3,7.6,72.35,72.35,0,0,1-3.8,7.3c-1.4,2.4-2.8,4.7-4.4,7s-3.2,4.5-4.9,6.6-3.4,4.3-5.2,6.4l-2.7,3.1c-.9,1-1.8,2.1-2.7,3A66.08,66.08,0,0,1,339,295.8c-1.1.7-2.2,1.4-3.4,2.1s-2.3,1.3-3.5,1.8l-1.8.9c-.6.3-1.2.5-1.8.8s-1.2.5-1.8.7l-1.8.7a57.3,57.3,0,0,1-15.3,3.3c-2.1.2-4.3.2-6.5.2h-.2c-3.1,0-6.2-.2-9.2-.5h-.2c-1.3-.1-2.5-.3-3.8-.4l-2-.3-1-.2h-.3s-38.3-6.3-49.7-15.9a21,21,0,0,1-5.7-7.8h0c-2.2-5-4.1-10.1-5.9-15.3-.4-1.3-.9-2.6-1.3-3.9,0-.1,0-.1-.1-.2q-1.8-5.85-3.3-11.7c-.7-2.7-1.3-5.4-1.8-8-.3-1.3-.6-2.7-.8-4s-.5-2.7-.7-4.1c-.5-2.7-.9-5.4-1.2-8.2s-.7-5.5-.9-8.2-1.1-18.9-.3-24.5a27.44,27.44,0,0,1,.9-3.9l.3-.9.3-.9a14,14,0,0,1,.9-1.7,14.31,14.31,0,0,1,1.1-1.5,8.64,8.64,0,0,1,1.3-1.4,12.88,12.88,0,0,1,3-2.2,21.69,21.69,0,0,1,3.5-1.5,23.39,23.39,0,0,1,3.8-.9,51.9,51.9,0,0,1,8-.6c2.7,0,5.4,0,8.1.2,5.4.4,10.8,1.1,16.2,2,10.9,1.7,21.7,3.6,32.5,5.9s21.4,4.9,32,7.9c5.3,1.5,10.6,3.1,15.8,5,2.6.9,5.2,1.9,7.7,3s5,2.3,7.4,3.6a74.52,74.52,0,0,1,7.1,4.3,45.46,45.46,0,0,1,6.4,5.2,30.71,30.71,0,0,1,5,6.4,26.21,26.21,0,0,1,3,7.6,40.6,40.6,0,0,1,.4,7.9" transform="translate(-153.3 -127.5)"/>
        </g>
        <g class="cls-4">
          <path class="cls-5" d="M268.8,377.6a5,5,0,0,1-1.2-.2c.4.1.8.1,1.2.2" transform="translate(-153.3 -127.5)"/>
        </g>
      </g>
    </g>
  </g>
</svg>
